<svg width="92" height="16" viewBox="0 0 92 16" fill="none" xmlns="http://www.w3.org/2000/svg">
<path fill-rule="evenodd" clip-rule="evenodd" d="M8.4594 0.966716C8.25519 0.762507 7.9241 0.762507 7.71989 0.966716L6.61428 2.07232C6.41007 2.27653 6.41007 2.60762 6.61428 2.81183L13.1882 9.38572C13.3924 9.58993 13.7235 9.58993 13.9277 9.38572L15.0333 8.28011C15.2375 8.0759 15.2375 7.74481 15.0333 7.5406L8.4594 0.966716ZM7.14462 0.391442C7.66654 -0.13048 8.51275 -0.130481 9.03467 0.391442L10.0618 1.41858L10.9993 0.481086C11.5212 -0.040838 12.3674 -0.0408365 12.8894 0.481086L15.5189 3.11064C16.0408 3.63256 16.0408 4.47877 15.5189 5.00069L14.5814 5.93819L15.6086 6.96533C16.1305 7.48725 16.1305 8.33346 15.6086 8.85538L14.5029 9.96099C13.981 10.4829 13.1348 10.4829 12.6129 9.96099L11.0223 8.37037L8.37037 11.0223L9.96099 12.6129C10.4829 13.1348 10.4829 13.981 9.96099 14.5029L8.85538 15.6086C8.33346 16.1305 7.48725 16.1305 6.96533 15.6086L5.93819 14.5814L5.00069 15.5189C4.47877 16.0408 3.63256 16.0408 3.11064 15.5189L0.481086 12.8894C-0.0408368 12.3674 -0.040837 11.5212 0.481086 10.9993L1.41858 10.0618L0.391442 9.03467C-0.130481 8.51275 -0.13048 7.66654 0.391442 7.14462L1.49705 6.03901C2.01897 5.51709 2.86518 5.51709 3.3871 6.03901L4.97772 7.62963L7.62963 4.97772L6.03901 3.3871C5.51709 2.86518 5.51709 2.01897 6.03901 1.49705L7.14462 0.391442ZM8.2049 5.55299L5.55299 8.2049L7.7951 10.447L10.447 7.7951L8.2049 5.55299ZM1.99386 10.6371L1.05636 11.5746C0.852151 11.7788 0.852151 12.1099 1.05636 12.3141L3.68591 14.9436C3.89012 15.1478 4.22121 15.1478 4.42542 14.9436L5.36292 14.0061L1.99386 10.6371ZM14.0061 5.36292L14.9436 4.42542C15.1478 4.22121 15.1478 3.89012 14.9436 3.68592L12.3141 1.05636C12.1099 0.852151 11.7788 0.852151 11.5746 1.05636L10.6371 1.99386L14.0061 5.36292ZM2.81183 6.61428C2.60762 6.41008 2.27653 6.41008 2.07232 6.61428L0.966716 7.71989C0.762507 7.9241 0.762507 8.25519 0.966715 8.4594L7.5406 15.0333C7.74481 15.2375 8.0759 15.2375 8.28011 15.0333L9.38572 13.9277C9.58992 13.7235 9.58992 13.3924 9.38572 13.1882L2.81183 6.61428Z" fill="#022C22"/>
<path d="M21.9052 0C22.8922 0 23.7544 0.243775 24.4916 0.731326C25.2289 1.20699 25.7997 1.92047 26.204 2.87179C26.6202 3.81122 26.8283 4.95281 26.8283 6.29654C26.8283 7.6165 26.6262 8.74619 26.2219 9.68562C25.8175 10.625 25.2467 11.3445 24.5095 11.8439C23.7722 12.3315 22.9041 12.5753 21.9052 12.5753C20.9301 12.5753 20.074 12.3315 19.3367 11.8439C18.5994 11.3564 18.0227 10.6429 17.6065 9.70346C17.2022 8.76403 17 7.63434 17 6.31438C17 4.99443 17.2022 3.85879 17.6065 2.90747C18.0227 1.95615 18.5994 1.23671 19.3367 0.749164C20.0858 0.249721 20.942 0 21.9052 0ZM21.9052 0.731326C20.6685 0.731326 19.6875 1.20699 18.9621 2.15831C18.2486 3.09773 17.8919 4.48309 17.8919 6.31438C17.8919 8.11 18.2546 9.47752 18.9799 10.4169C19.7053 11.3564 20.6804 11.8261 21.9052 11.8261C23.1776 11.8261 24.1646 11.3623 24.8662 10.4348C25.5797 9.49535 25.9365 8.11594 25.9365 6.29654C25.9365 4.46525 25.5797 3.0799 24.8662 2.14047C24.1527 1.20104 23.1657 0.731326 21.9052 0.731326Z" fill="#022C22"/>
<path d="M33.7207 2.88963C34.8266 2.88963 35.665 3.30583 36.2358 4.13824C36.8066 4.95875 37.092 6.13601 37.092 7.67001C37.092 9.19212 36.7887 10.3932 36.1823 11.2731C35.5758 12.1412 34.7137 12.5753 33.5959 12.5753C33.0251 12.5753 32.5019 12.4504 32.0262 12.2007C31.5624 11.9509 31.176 11.6239 30.8668 11.2196V15.8573L30.0463 16V3.068H30.7598L30.8133 4.47715C31.17 3.9777 31.5922 3.59123 32.0797 3.31773C32.5673 3.03233 33.1143 2.88963 33.7207 2.88963ZM33.471 11.8439C34.3629 11.8439 35.0407 11.4931 35.5045 10.7915C35.9801 10.078 36.2179 9.03753 36.2179 7.67001C36.2179 4.94686 35.3499 3.58528 33.6137 3.58528C33.031 3.58528 32.5256 3.72798 32.0975 4.01338C31.6695 4.29877 31.2592 4.70308 30.8668 5.22631V10.3456C31.1878 10.8213 31.5624 11.1899 31.9905 11.4515C32.4305 11.7131 32.924 11.8439 33.471 11.8439Z" fill="#022C22"/>
<path d="M46.7628 7.34894C46.7628 7.59866 46.7509 7.84244 46.7271 8.08027H40.4128C40.4722 9.35266 40.7755 10.298 41.3225 10.9164C41.8695 11.5347 42.583 11.8439 43.4629 11.8439C43.9624 11.8439 44.4024 11.7726 44.7829 11.6299C45.1634 11.4753 45.5677 11.2315 45.9958 10.8986L46.4061 11.4337C45.9542 11.8142 45.4904 12.0996 45.0148 12.2899C44.5391 12.4801 44.0099 12.5753 43.4273 12.5753C42.2262 12.5753 41.2808 12.1531 40.5911 11.3088C39.9014 10.4645 39.5566 9.2932 39.5566 7.79487C39.5566 6.80788 39.7052 5.94574 40.0025 5.20847C40.2998 4.45931 40.7219 3.88852 41.269 3.4961C41.8279 3.09179 42.4759 2.88963 43.2132 2.88963C44.3667 2.88963 45.2467 3.288 45.8531 4.08473C46.4596 4.88146 46.7628 5.96953 46.7628 7.34894ZM45.9601 7.08138C45.9601 5.99926 45.7342 5.14901 45.2823 4.53066C44.8305 3.90041 44.1526 3.58528 43.2489 3.58528C42.4403 3.58528 41.7743 3.90635 41.2511 4.54849C40.7398 5.17874 40.4603 6.13601 40.4128 7.42029H45.9601V7.08138Z" fill="#022C22"/>
<path d="M53.8478 2.88963C54.6921 2.88963 55.3283 3.13935 55.7564 3.6388C56.1845 4.12635 56.3985 4.82794 56.3985 5.74359V12.379H55.578V5.85061C55.578 5.06577 55.4234 4.48904 55.1143 4.1204C54.8051 3.75176 54.3413 3.56745 53.723 3.56745C53.0927 3.56745 52.5338 3.73987 52.0463 4.08473C51.5587 4.42958 51.0949 4.92902 50.655 5.58305V12.379H49.8344V3.068H50.5479L50.6193 4.72687C51.4993 3.50204 52.5754 2.88963 53.8478 2.88963Z" fill="#022C22"/>
<path d="M63.9492 0C64.7966 0 65.5706 0.141243 66.2712 0.423728C66.9831 0.706215 67.6045 1.0791 68.1356 1.54237L66.4407 3.30508C66.0226 3 65.6441 2.77966 65.3051 2.64407C64.9661 2.50847 64.5819 2.44068 64.1525 2.44068C63.3277 2.44068 62.6949 2.75706 62.2542 3.38983C61.8136 4.0113 61.5932 4.96045 61.5932 6.23729C61.5932 7.19774 61.661 7.9548 61.7966 8.50847C61.9322 9.05085 62.1412 9.43503 62.4237 9.66102C62.7175 9.88701 63.1017 10 63.5763 10C63.9944 10 64.3955 9.90395 64.7797 9.71186V7.55932H63.5932L63.2712 5.20339H68.1356V11.1186C67.5141 11.548 66.8023 11.8814 66 12.1186C65.1977 12.3559 64.4237 12.4746 63.678 12.4746C61.7458 12.4746 60.3164 11.9492 59.3898 10.8983C58.4633 9.83616 58 8.27684 58 6.22034C58 4.9209 58.2542 3.80226 58.7627 2.86441C59.2712 1.92655 59.9774 1.21469 60.8814 0.728813C61.7853 0.242938 62.8079 0 63.9492 0Z" fill="#134E4A"/>
<path d="M75.2597 12.1186C74.8755 13.3729 74.2201 14.322 73.2936 14.9661C72.367 15.6102 71.1467 15.9548 69.6325 16L69.2766 13.7119C70.1467 13.6215 70.7907 13.4633 71.2088 13.2373C71.6382 13.0113 71.9715 12.6441 72.2088 12.1356H71.0563L68.48 3.08475H72.0393L73.1749 10.0847L74.5817 3.08475H78.0393L75.2597 12.1186Z" fill="#134E4A"/>
<path d="M89.0424 2.74576C89.7316 2.74576 90.2853 2.9887 90.7034 3.47458C91.1328 3.94915 91.3475 4.61017 91.3475 5.45763V12.1356H87.9915V6.0678C87.9915 5.74011 87.952 5.51412 87.8729 5.38983C87.7938 5.25424 87.6808 5.18644 87.5339 5.18644C87.3644 5.18644 87.2006 5.26554 87.0424 5.42373C86.8842 5.57062 86.7373 5.79096 86.6017 6.08475V12.1356H83.2458V6.0678C83.2458 5.74011 83.2062 5.51412 83.1271 5.38983C83.048 5.25424 82.935 5.18644 82.7881 5.18644C82.6186 5.18644 82.4548 5.26554 82.2966 5.42373C82.1384 5.57062 81.9915 5.79096 81.8559 6.08475V12.1356H78.5V3.08475H81.4322L81.6695 4C82.0311 3.55932 82.4209 3.24294 82.839 3.05085C83.2684 2.84746 83.7542 2.74576 84.2966 2.74576C84.7712 2.74576 85.1836 2.85876 85.5339 3.08475C85.8842 3.31073 86.1497 3.63277 86.3305 4.05085C86.7147 3.59887 87.1215 3.27119 87.5508 3.0678C87.9802 2.85311 88.4774 2.74576 89.0424 2.74576Z" fill="#134E4A"/>
</svg>
